<mxfile host="app.diagrams.net" modified="2024-05-28T06:55:27.483Z" agent="Mozilla/5.0 (Windows NT 10.0; Win64; x64) AppleWebKit/537.36 (KHTML, like Gecko) Chrome/123.0.0.0 Safari/537.36 OPR/109.0.0.0" etag="6pXw3vzZwrJePecSyF9b" version="24.4.9" type="github">
  <diagram name="Page-1" id="xLA4N-UAT8qyOrycef2D">
    <mxGraphModel dx="753" dy="481" grid="1" gridSize="10" guides="1" tooltips="1" connect="1" arrows="1" fold="1" page="1" pageScale="1" pageWidth="850" pageHeight="1100" math="0" shadow="0">
      <root>
        <mxCell id="0" />
        <mxCell id="1" parent="0" />
        <mxCell id="WXJrwFmIYu1o2WTXiCBB-62" value="House" style="swimlane;fontStyle=0;childLayout=stackLayout;horizontal=1;startSize=26;horizontalStack=0;resizeParent=1;resizeParentMax=0;resizeLast=0;collapsible=1;marginBottom=0;align=center;fontSize=14;" vertex="1" parent="1">
          <mxGeometry x="90" y="40" width="160" height="130" as="geometry" />
        </mxCell>
        <mxCell id="WXJrwFmIYu1o2WTXiCBB-63" value="-address: string" style="text;strokeColor=none;fillColor=none;spacingLeft=4;spacingRight=4;overflow=hidden;rotatable=0;points=[[0,0.5],[1,0.5]];portConstraint=eastwest;fontSize=12;whiteSpace=wrap;html=1;" vertex="1" parent="WXJrwFmIYu1o2WTXiCBB-62">
          <mxGeometry y="26" width="160" height="30" as="geometry" />
        </mxCell>
        <mxCell id="WXJrwFmIYu1o2WTXiCBB-64" value="-room: List &amp;lt;Room&amp;gt;" style="text;strokeColor=none;fillColor=none;spacingLeft=4;spacingRight=4;overflow=hidden;rotatable=0;points=[[0,0.5],[1,0.5]];portConstraint=eastwest;fontSize=12;whiteSpace=wrap;html=1;" vertex="1" parent="WXJrwFmIYu1o2WTXiCBB-62">
          <mxGeometry y="56" width="160" height="30" as="geometry" />
        </mxCell>
        <mxCell id="WXJrwFmIYu1o2WTXiCBB-65" value="+ add_room(room_name: string)" style="text;strokeColor=none;fillColor=none;spacingLeft=4;spacingRight=4;overflow=hidden;rotatable=0;points=[[0,0.5],[1,0.5]];portConstraint=eastwest;fontSize=12;whiteSpace=wrap;html=1;" vertex="1" parent="WXJrwFmIYu1o2WTXiCBB-62">
          <mxGeometry y="86" width="160" height="44" as="geometry" />
        </mxCell>
        <mxCell id="WXJrwFmIYu1o2WTXiCBB-66" value="Room" style="swimlane;fontStyle=0;childLayout=stackLayout;horizontal=1;startSize=26;horizontalStack=0;resizeParent=1;resizeParentMax=0;resizeLast=0;collapsible=1;marginBottom=0;align=center;fontSize=14;" vertex="1" parent="1">
          <mxGeometry x="390" y="40" width="160" height="86" as="geometry" />
        </mxCell>
        <mxCell id="WXJrwFmIYu1o2WTXiCBB-67" value="-name: string" style="text;strokeColor=none;fillColor=none;spacingLeft=4;spacingRight=4;overflow=hidden;rotatable=0;points=[[0,0.5],[1,0.5]];portConstraint=eastwest;fontSize=12;whiteSpace=wrap;html=1;" vertex="1" parent="WXJrwFmIYu1o2WTXiCBB-66">
          <mxGeometry y="26" width="160" height="30" as="geometry" />
        </mxCell>
        <mxCell id="WXJrwFmIYu1o2WTXiCBB-69" value="Item 3" style="text;strokeColor=none;fillColor=none;spacingLeft=4;spacingRight=4;overflow=hidden;rotatable=0;points=[[0,0.5],[1,0.5]];portConstraint=eastwest;fontSize=12;whiteSpace=wrap;html=1;" vertex="1" parent="WXJrwFmIYu1o2WTXiCBB-66">
          <mxGeometry y="56" width="160" height="30" as="geometry" />
        </mxCell>
        <mxCell id="WXJrwFmIYu1o2WTXiCBB-71" value="1" style="endArrow=open;html=1;endSize=12;startArrow=diamondThin;startSize=14;startFill=1;edgeStyle=orthogonalEdgeStyle;align=left;verticalAlign=bottom;rounded=0;" edge="1" parent="1">
          <mxGeometry x="-1" y="3" relative="1" as="geometry">
            <mxPoint x="250" y="50" as="sourcePoint" />
            <mxPoint x="390" y="50" as="targetPoint" />
          </mxGeometry>
        </mxCell>
        <mxCell id="WXJrwFmIYu1o2WTXiCBB-74" value="0" style="text;html=1;align=center;verticalAlign=middle;resizable=0;points=[];autosize=1;strokeColor=none;fillColor=none;" vertex="1" parent="1">
          <mxGeometry x="360" y="20" width="30" height="30" as="geometry" />
        </mxCell>
        <mxCell id="WXJrwFmIYu1o2WTXiCBB-75" value="Person" style="swimlane;fontStyle=0;childLayout=stackLayout;horizontal=1;startSize=30;horizontalStack=0;resizeParent=1;resizeParentMax=0;resizeLast=0;collapsible=1;marginBottom=0;whiteSpace=wrap;html=1;" vertex="1" parent="1">
          <mxGeometry x="100" y="330" width="140" height="120" as="geometry" />
        </mxCell>
        <mxCell id="WXJrwFmIYu1o2WTXiCBB-76" value="-name: string" style="text;strokeColor=none;fillColor=none;align=left;verticalAlign=middle;spacingLeft=4;spacingRight=4;overflow=hidden;points=[[0,0.5],[1,0.5]];portConstraint=eastwest;rotatable=0;whiteSpace=wrap;html=1;" vertex="1" parent="WXJrwFmIYu1o2WTXiCBB-75">
          <mxGeometry y="30" width="140" height="30" as="geometry" />
        </mxCell>
        <mxCell id="WXJrwFmIYu1o2WTXiCBB-77" value="-age: int" style="text;strokeColor=none;fillColor=none;align=left;verticalAlign=middle;spacingLeft=4;spacingRight=4;overflow=hidden;points=[[0,0.5],[1,0.5]];portConstraint=eastwest;rotatable=0;whiteSpace=wrap;html=1;" vertex="1" parent="WXJrwFmIYu1o2WTXiCBB-75">
          <mxGeometry y="60" width="140" height="30" as="geometry" />
        </mxCell>
        <mxCell id="WXJrwFmIYu1o2WTXiCBB-78" value="+get_details(): string" style="text;strokeColor=none;fillColor=none;align=left;verticalAlign=middle;spacingLeft=4;spacingRight=4;overflow=hidden;points=[[0,0.5],[1,0.5]];portConstraint=eastwest;rotatable=0;whiteSpace=wrap;html=1;" vertex="1" parent="WXJrwFmIYu1o2WTXiCBB-75">
          <mxGeometry y="90" width="140" height="30" as="geometry" />
        </mxCell>
        <mxCell id="WXJrwFmIYu1o2WTXiCBB-79" value="Employee" style="swimlane;fontStyle=0;childLayout=stackLayout;horizontal=1;startSize=30;horizontalStack=0;resizeParent=1;resizeParentMax=0;resizeLast=0;collapsible=1;marginBottom=0;whiteSpace=wrap;html=1;" vertex="1" parent="1">
          <mxGeometry x="330" y="330" width="140" height="90" as="geometry" />
        </mxCell>
        <mxCell id="WXJrwFmIYu1o2WTXiCBB-98" value="" style="edgeStyle=none;html=1;endSize=12;endArrow=block;endFill=0;rounded=0;entryX=1.01;entryY=0.144;entryDx=0;entryDy=0;entryPerimeter=0;" edge="1" parent="WXJrwFmIYu1o2WTXiCBB-79" target="WXJrwFmIYu1o2WTXiCBB-75">
          <mxGeometry width="160" relative="1" as="geometry">
            <mxPoint y="20" as="sourcePoint" />
            <mxPoint x="160" y="20" as="targetPoint" />
          </mxGeometry>
        </mxCell>
        <mxCell id="WXJrwFmIYu1o2WTXiCBB-99" value="" style="edgeStyle=none;html=1;endSize=12;endArrow=block;endFill=0;rounded=0;" edge="1" parent="WXJrwFmIYu1o2WTXiCBB-79">
          <mxGeometry width="160" relative="1" as="geometry">
            <mxPoint x="209" y="13" as="sourcePoint" />
            <mxPoint x="140" y="13" as="targetPoint" />
          </mxGeometry>
        </mxCell>
        <mxCell id="WXJrwFmIYu1o2WTXiCBB-80" value="-employee_id: string" style="text;strokeColor=none;fillColor=none;align=left;verticalAlign=middle;spacingLeft=4;spacingRight=4;overflow=hidden;points=[[0,0.5],[1,0.5]];portConstraint=eastwest;rotatable=0;whiteSpace=wrap;html=1;" vertex="1" parent="WXJrwFmIYu1o2WTXiCBB-79">
          <mxGeometry y="30" width="140" height="30" as="geometry" />
        </mxCell>
        <mxCell id="WXJrwFmIYu1o2WTXiCBB-81" value="+get_details(): string" style="text;strokeColor=none;fillColor=none;align=left;verticalAlign=middle;spacingLeft=4;spacingRight=4;overflow=hidden;points=[[0,0.5],[1,0.5]];portConstraint=eastwest;rotatable=0;whiteSpace=wrap;html=1;" vertex="1" parent="WXJrwFmIYu1o2WTXiCBB-79">
          <mxGeometry y="60" width="140" height="30" as="geometry" />
        </mxCell>
        <mxCell id="WXJrwFmIYu1o2WTXiCBB-91" value="Customer" style="swimlane;fontStyle=0;childLayout=stackLayout;horizontal=1;startSize=30;horizontalStack=0;resizeParent=1;resizeParentMax=0;resizeLast=0;collapsible=1;marginBottom=0;whiteSpace=wrap;html=1;" vertex="1" parent="1">
          <mxGeometry x="540" y="330" width="140" height="120" as="geometry" />
        </mxCell>
        <mxCell id="WXJrwFmIYu1o2WTXiCBB-92" value="-customer_id: string" style="text;strokeColor=none;fillColor=none;align=left;verticalAlign=middle;spacingLeft=4;spacingRight=4;overflow=hidden;points=[[0,0.5],[1,0.5]];portConstraint=eastwest;rotatable=0;whiteSpace=wrap;html=1;" vertex="1" parent="WXJrwFmIYu1o2WTXiCBB-91">
          <mxGeometry y="30" width="140" height="30" as="geometry" />
        </mxCell>
        <mxCell id="WXJrwFmIYu1o2WTXiCBB-93" value="+get_details(): string" style="text;strokeColor=none;fillColor=none;align=left;verticalAlign=middle;spacingLeft=4;spacingRight=4;overflow=hidden;points=[[0,0.5],[1,0.5]];portConstraint=eastwest;rotatable=0;whiteSpace=wrap;html=1;" vertex="1" parent="WXJrwFmIYu1o2WTXiCBB-91">
          <mxGeometry y="60" width="140" height="30" as="geometry" />
        </mxCell>
        <mxCell id="WXJrwFmIYu1o2WTXiCBB-94" value="Item 3" style="text;strokeColor=none;fillColor=none;align=left;verticalAlign=middle;spacingLeft=4;spacingRight=4;overflow=hidden;points=[[0,0.5],[1,0.5]];portConstraint=eastwest;rotatable=0;whiteSpace=wrap;html=1;" vertex="1" parent="WXJrwFmIYu1o2WTXiCBB-91">
          <mxGeometry y="90" width="140" height="30" as="geometry" />
        </mxCell>
      </root>
    </mxGraphModel>
  </diagram>
</mxfile>
